<svg width="24" height="24" viewBox="0 0 24 24" fill="none" xmlns="http://www.w3.org/2000/svg">
<g clip-path="url(#clip0_274_857)">
<path d="M14.75 22.5H8.75C3.32 22.5 1 20.18 1 14.75V8.75C1 3.32 3.32 1 8.75 1H13.75C13.9485 1.00131 14.1385 1.08075 14.2789 1.22112C14.4193 1.36149 14.4987 1.55149 14.5 1.75C14.4987 1.94851 14.4193 2.13851 14.2789 2.27888C14.1385 2.41925 13.9485 2.49869 13.75 2.5H8.75C4.14 2.5 2.5 4.14 2.5 8.75V14.75C2.5 19.36 4.14 21 8.75 21H14.75C19.36 21 21 19.36 21 14.75V9.75C21 9.55109 21.079 9.36032 21.2197 9.21967C21.3603 9.07902 21.5511 9 21.75 9C21.9489 9 22.1397 9.07902 22.2803 9.21967C22.421 9.36032 22.5 9.55109 22.5 9.75V14.75C22.5 20.18 20.18 22.5 14.75 22.5Z" fill="#6D0B00"/>
<path d="M21.75 10.5013H17.75C14.33 10.5013 13 9.17031 13 5.75031V1.75031C12.9991 1.60254 13.0425 1.45789 13.1245 1.33493C13.2064 1.21198 13.3233 1.11634 13.46 1.06031C13.5973 1.00357 13.7483 0.988491 13.8941 1.01694C14.0399 1.04539 14.1741 1.11612 14.28 1.22031L22.28 9.22031C22.3846 9.32533 22.4558 9.45896 22.4846 9.60437C22.5134 9.74977 22.4986 9.90045 22.4419 10.0374C22.3852 10.1744 22.2893 10.2915 22.1662 10.3741C22.043 10.4566 21.8982 10.5009 21.75 10.5013ZM14.5 3.56031V5.75031C14.5 8.33031 15.17 9.00131 17.75 9.00131H19.94L14.5 3.56031Z" fill="#6D0B00"/>
<path d="M9.31299 17.5C9.11448 17.4987 8.92448 17.4193 8.78411 17.2789C8.64374 17.1385 8.5643 16.9485 8.56299 16.75V11.75C8.5643 11.5515 8.64374 11.3615 8.78411 11.2211C8.92448 11.0807 9.11448 11.0013 9.31299 11C9.5115 11.0013 9.7015 11.0807 9.84187 11.2211C9.98224 11.3615 10.0617 11.5515 10.063 11.75V16.75C10.0617 16.9485 9.98224 17.1385 9.84187 17.2789C9.7015 17.4193 9.5115 17.4987 9.31299 17.5Z" fill="#6D0B00"/>
<path d="M11.7529 15H6.75293C6.55442 14.9987 6.36442 14.9193 6.22405 14.7789C6.08368 14.6385 6.00424 14.4485 6.00293 14.25C6.00424 14.0515 6.08368 13.8615 6.22405 13.7211C6.36442 13.5807 6.55442 13.5013 6.75293 13.5H11.7529C11.9514 13.5013 12.1414 13.5807 12.2818 13.7211C12.4222 13.8615 12.5016 14.0515 12.5029 14.25C12.5016 14.4485 12.4222 14.6385 12.2818 14.7789C12.1414 14.9193 11.9514 14.9987 11.7529 15Z" fill="#6D0B00"/>
</g>
<defs>
<clipPath id="clip0_274_857">
<rect width="21.5" height="21.5" fill="white" transform="translate(1 1)"/>
</clipPath>
</defs>
</svg>
