<svg width="24" height="24" viewBox="0 0 24 24" fill="none" xmlns="http://www.w3.org/2000/svg">
<g clip-path="url(#clip0_136_4232)">
<path d="M12 22.75C9.87386 22.75 7.79545 22.1195 6.02762 20.9383C4.2598 19.7571 2.88194 18.0782 2.0683 16.1139C1.25466 14.1495 1.04177 11.9881 1.45656 9.90278C1.87135 7.81749 2.89519 5.90202 4.39861 4.39861C5.90202 2.89519 7.81749 1.87135 9.90278 1.45656C11.9881 1.04177 14.1495 1.25466 16.1139 2.0683C18.0782 2.88194 19.7571 4.2598 20.9383 6.02762C22.1195 7.79545 22.75 9.87386 22.75 12C22.7476 14.8504 21.6143 17.5833 19.5988 19.5988C17.5833 21.6143 14.8504 22.7476 12 22.75ZM12 2.75C10.1705 2.75 8.38213 3.29251 6.86098 4.30891C5.33983 5.32531 4.15423 6.76997 3.45412 8.46018C2.75401 10.1504 2.57083 12.0103 2.92774 13.8046C3.28465 15.5989 4.16563 17.2471 5.45927 18.5407C6.7529 19.8344 8.40109 20.7154 10.1954 21.0723C11.9897 21.4292 13.8496 21.246 15.5398 20.5459C17.23 19.8458 18.6747 18.6602 19.6911 17.139C20.7075 15.6179 21.25 13.8295 21.25 12C21.2471 9.54765 20.2716 7.19656 18.5375 5.46248C16.8034 3.7284 14.4524 2.75292 12 2.75Z" fill="#6D6D6D"/>
<path d="M9.17006 15.5791C9.07154 15.5794 8.97393 15.5602 8.88294 15.5224C8.79194 15.4846 8.70938 15.4291 8.64006 15.3591C8.50058 15.2179 8.42236 15.0275 8.42236 14.8291C8.42236 14.6306 8.50058 14.4402 8.64006 14.2991L14.3011 8.64008C14.3697 8.56639 14.4525 8.50729 14.5445 8.46629C14.6365 8.4253 14.7358 8.40326 14.8365 8.40148C14.9372 8.39971 15.0373 8.41823 15.1307 8.45595C15.2241 8.49367 15.3089 8.54982 15.3801 8.62104C15.4513 8.69226 15.5075 8.77709 15.5452 8.87048C15.5829 8.96387 15.6014 9.0639 15.5997 9.1646C15.5979 9.2653 15.5758 9.36461 15.5348 9.45661C15.4939 9.54861 15.4348 9.63141 15.3611 9.70008L9.70106 15.3601C9.63214 15.4308 9.54949 15.4867 9.45818 15.5244C9.36687 15.5621 9.26882 15.5807 9.17006 15.5791Z" fill="#6D6D6D"/>
<path d="M14.83 15.5791C14.7315 15.5794 14.6339 15.5601 14.5429 15.5224C14.4519 15.4846 14.3693 15.4291 14.3 15.3591L8.64104 9.69906C8.51331 9.55617 8.44513 9.36981 8.45049 9.17824C8.45585 8.98666 8.53435 8.80441 8.66987 8.66889C8.80538 8.53337 8.98764 8.45487 9.17921 8.44951C9.37079 8.44415 9.55715 8.51233 9.70003 8.64006L15.36 14.3001C15.4995 14.4412 15.5777 14.6316 15.5777 14.8301C15.5777 15.0285 15.4995 15.2189 15.36 15.3601C15.2906 15.4299 15.208 15.4852 15.117 15.5228C15.0261 15.5604 14.9285 15.5795 14.83 15.5791Z" fill="#6D6D6D"/>
</g>
<defs>
<clipPath id="clip0_136_4232">
<rect width="24" height="24" fill="white"/>
</clipPath>
</defs>
</svg>
